<?xml version="1.0" encoding="UTF-8" standalone="no"?>
<!-- Created with Inkscape (http://www.inkscape.org/) -->

<svg
   width="590"
   height="390"
   viewBox="0 0 156.10417 103.1875"
   version="1.1"
   id="svg713"
   sodipodi:docname="logo.svg"
   inkscape:version="1.2 (dc2aedaf03, 2022-05-15)"
   xmlns:inkscape="http://www.inkscape.org/namespaces/inkscape"
   xmlns:sodipodi="http://sodipodi.sourceforge.net/DTD/sodipodi-0.dtd"
   xmlns="http://www.w3.org/2000/svg"
   xmlns:svg="http://www.w3.org/2000/svg">
  <sodipodi:namedview
     id="namedview715"
     pagecolor="#ffffff"
     bordercolor="#000000"
     borderopacity="0.25"
     inkscape:showpageshadow="2"
     inkscape:pageopacity="0.0"
     inkscape:pagecheckerboard="0"
     inkscape:deskcolor="#d1d1d1"
     inkscape:document-units="mm"
     showgrid="false"
     inkscape:zoom="0.69842873"
     inkscape:cx="287.78885"
     inkscape:cy="52.260164"
     inkscape:window-width="1920"
     inkscape:window-height="1001"
     inkscape:window-x="-9"
     inkscape:window-y="-9"
     inkscape:window-maximized="1"
     inkscape:current-layer="layer1" />
  <defs
     id="defs710">
    <linearGradient
       id="linearGradient35585"
       inkscape:swatch="solid">
      <stop
         style="stop-color:#303447;stop-opacity:1;"
         offset="0"
         id="stop35583" />
    </linearGradient>
  </defs>
  <g
     inkscape:label="Layer 1"
     inkscape:groupmode="layer"
     id="layer1"
     transform="translate(3.0306122,1.8941327)">
    <rect
       style="fill:#1a1b26;fill-opacity:1;stroke-width:0.133137;opacity:1"
       id="rect4007"
       width="156.11188"
       height="103.60614"
       x="-2.8966753"
       y="-2.2543147" />
    <rect
       style="fill:#c0caf5;fill-opacity:1;stroke-width:0.295519"
       id="rect8633"
       width="2.2468009"
       height="88.924957"
       x="80.506973"
       y="30.129002"
       transform="matrix(0.94961612,-0.3134154,-0.00651598,0.99997877,0,0)" />
    <text
       xml:space="preserve"
       style="font-style:normal;font-variant:normal;font-weight:normal;font-stretch:normal;font-size:29.3562px;font-family:'MesloLGS NF';-inkscape-font-specification:'MesloLGS NF';fill:#73daca;fill-opacity:1;stroke-width:0.305793"
       x="0.01309945"
       y="85.286674"
       id="text8741"><tspan
         sodipodi:role="line"
         id="tspan8739"
         style="fill:#73daca;fill-opacity:1;stroke-width:0.305793"
         x="0.01309945"
         y="85.286674">John</tspan></text>
    <text
       xml:space="preserve"
       style="font-style:normal;font-variant:normal;font-weight:normal;font-stretch:normal;font-size:29.3562px;font-family:'MesloLGS NF';-inkscape-font-specification:'MesloLGS NF';fill:#bb9af7;fill-opacity:1;stroke-width:0.305793"
       x="78.95562"
       y="85.516769"
       id="text9573"><tspan
         sodipodi:role="line"
         id="tspan9571"
         style="fill:#bb9af7;fill-opacity:1;stroke-width:0.305793"
         x="78.95562"
         y="85.516769">Ling</tspan></text>
    <rect
       style="fill:#ff00ff;fill-opacity:0;stroke-width:0.305793"
       id="rect17767"
       width="86.995605"
       height="5.8822651"
       x="35.991772"
       y="96.71225" />
    <path
       style="fill:none;stroke-width:0.790075"
       d="M 0.71589266,194.36486 V -1.073839 H 295.30572 589.89555 V 194.36486 389.80355 H 295.30572 0.71589266 Z M 307.11795,205.39531 C 377.40071,112.68152 434.9979,36.555272 435.1117,36.225874 c 0.26236,-0.759349 -8.64481,-3.041123 -9.23167,-2.364901 -0.23955,0.276031 -57.70511,76.046447 -127.70126,168.378707 -69.99615,92.33225 -127.57143,168.2624 -127.94507,168.73367 -0.49241,0.62106 0.27181,1.14908 2.77725,1.91884 1.90112,0.5841 4.10089,1.06462 4.88838,1.06783 1.06854,0.004 33.85071,-42.75973 129.21862,-168.56471 z m 245.00468,147.49327 c 4.29255,-1.46262 9.46994,-6.04038 11.58768,-10.24564 3.0218,-6.00047 3.27668,-9.26771 3.27668,-42.00326 v -31.10609 h -5.3692 -5.36919 v 2.95474 2.95475 l -3.14657,-2.9004 c -3.60828,-3.326 -6.84968,-4.43123 -13.01246,-4.43688 -6.113,-0.006 -10.48267,1.68739 -14.51216,5.62267 -6.05704,5.91541 -8.70291,13.78124 -8.70291,25.87261 0,14.69204 4.65477,24.64943 13.79995,29.52058 2.48789,1.32518 4.16495,1.61139 9.46656,1.61562 5.73806,0.004 6.8079,-0.20936 9.77769,-1.95517 1.83407,-1.07817 3.99838,-2.85001 4.8096,-3.93741 l 1.47494,-1.97711 0.0227,5.06029 c 0.0471,10.51201 -3.3322,15.88321 -10.9937,17.47373 -4.67247,0.97 -9.20493,0.29988 -16.47171,-2.43533 -2.69367,-1.01388 -5.02028,-1.84343 -5.17027,-1.84343 -0.15,0 -0.27272,2.39417 -0.27272,5.32037 v 5.32036 l 5.19023,1.10124 c 2.85462,0.60569 5.9956,1.24875 6.97995,1.42902 3.24662,0.5946 13.24436,-0.24998 16.63492,-1.40526 z M 372.26418,325.73116 v -4.6533 h -19.68705 -19.68704 v -35.79464 -35.79463 h -5.72715 -5.72714 v 40.44794 40.44793 h 25.41419 25.41419 z m 67.29391,0.71589 v -3.93741 H 429.5356 419.5131 v -26.48803 -26.48802 h -12.88607 -12.88607 v 4.29535 4.29536 h 7.51688 7.51687 v 22.19267 22.19267 h -9.66455 -9.66455 v 3.93741 3.93741 h 25.05624 25.05624 z m 25.06024,-15.92861 c 0.004,-20.56684 0.31838,-23.39371 3.04604,-27.40128 2.67878,-3.93578 5.07045,-5.25661 10.02272,-5.53521 5.71611,-0.32157 8.56887,1.29946 10.75198,6.10961 1.43683,3.16584 1.5527,4.76187 1.81761,25.03715 l 0.28294,21.65575 h 4.93468 4.93467 v -22.68263 c 0,-26.14054 -0.4021,-28.82466 -5.12135,-34.18601 -3.8208,-4.34065 -7.60053,-5.69259 -14.73267,-5.26963 -6.25734,0.37109 -9.2323,1.59397 -13.25602,5.44897 l -2.68459,2.57204 v -3.36681 -3.3668 h -5.3692 -5.36919 v 30.42543 30.42544 h 5.36919 5.3692 l 0.004,-19.86602 z M 419.5131,252.71011 v -6.80098 h -5.3692 -5.36919 v 6.80098 6.80098 h 5.36919 5.3692 z M 64.024682,148.5035 c 6.554885,-1.14148 11.049263,-3.87407 13.717538,-8.34027 3.603202,-6.0311 3.869543,-8.98537 3.869543,-42.921225 V 66.220071 H 65.504178 49.396593 v 5.011249 5.011248 h 10.380444 10.380444 v 25.021002 c 0,15.12968 -0.303996,26.43849 -0.768985,28.60666 -1.435893,6.69534 -5.103026,9.46038 -12.546832,9.46038 -6.121266,0 -11.285309,-1.58374 -16.06068,-4.92559 -2.151882,-1.50591 -4.315202,-2.98576 -4.807378,-3.28856 -0.691566,-0.42547 -0.894866,0.98411 -0.894866,6.20452 v 6.75507 l 3.40049,1.46234 c 7.553939,3.24846 17.373352,4.38822 25.545452,2.96511 z m 76.563918,-1.14554 c 10.25318,-3.8601 15.44872,-14.171 15.45299,-30.66746 0.004,-15.24358 -4.58748,-24.79859 -14.17991,-29.50925 -3.68555,-1.809898 -4.76512,-1.990024 -11.92716,-1.990024 -7.16204,0 -8.24162,0.180126 -11.92716,1.990024 -9.67372,4.750571 -14.18176,14.24465 -14.18176,29.8672 0,17.68369 5.77811,27.71127 17.9344,31.12411 4.9211,1.38158 14.04342,0.98691 18.8286,-0.8146 z m 43.57951,-20.10804 c 0.20271,-13.97193 0.5925,-21.50081 1.21371,-23.44312 0.5033,-1.57367 2.25461,-4.200717 3.89179,-5.837899 2.33409,-2.334089 3.70616,-3.086077 6.35584,-3.483419 7.10396,-1.065306 11.77121,1.67075 13.31615,7.806248 0.51307,2.03759 0.81095,10.99296 0.81095,24.38034 v 21.15976 h 5.42 5.42 l -0.26222,-24.16137 C 220.05,97.472687 219.8641,96.128455 215.78612,90.781947 c -3.94521,-5.172439 -12.69283,-7.23494 -20.75048,-4.892511 -3.22363,0.937133 -5.05197,2.046659 -7.64414,4.638827 l -3.40709,3.407084 V 78.287974 62.640608 h -5.36919 -5.3692 v 42.595612 42.59561 h 5.31174 5.31174 z m 67.11421,0.35795 c 0.002,-11.33891 0.32004,-21.36178 0.72337,-22.81381 3.043,-10.954994 17.34461,-14.539432 22.51479,-5.642927 1.35859,2.337767 1.48012,4.040307 1.81409,25.414187 l 0.35794,22.90857 5.22532,0.21104 5.22531,0.21105 -0.21406,-24.5514 c -0.20844,-23.905966 -0.25767,-24.647716 -1.87241,-28.215518 -3.08952,-6.826323 -8.54826,-10.295782 -16.19905,-10.295782 -5.85518,0 -10.74297,1.794922 -14.38151,5.281262 l -3.19779,3.06402 V 89.72181 86.265065 h -5.36919 -5.3692 v 30.783385 30.78338 h 5.3692 5.36919 z"
       id="path49905"
       transform="matrix(0.26458333,0,0,0.26458333,-3.0306122,-1.8941327)" />
    <path
       style="fill:none;stroke-width:0.790075"
       d="M 0.71589266,194.36486 V -1.073839 H 295.30572 589.89555 V 194.36486 389.80355 H 295.30572 0.71589266 Z M 307.11795,205.39531 C 377.40071,112.68152 434.9979,36.555272 435.1117,36.225874 c 0.26236,-0.759349 -8.64481,-3.041123 -9.23167,-2.364901 -0.23955,0.276031 -57.70511,76.046447 -127.70126,168.378707 -69.99615,92.33225 -127.57143,168.2624 -127.94507,168.73367 -0.49241,0.62106 0.27181,1.14908 2.77725,1.91884 1.90112,0.5841 4.10089,1.06462 4.88838,1.06783 1.06854,0.004 33.85071,-42.75973 129.21862,-168.56471 z m 245.00468,147.49327 c 4.29255,-1.46262 9.46994,-6.04038 11.58768,-10.24564 3.0218,-6.00047 3.27668,-9.26771 3.27668,-42.00326 v -31.10609 h -5.3692 -5.36919 v 2.95474 2.95475 l -3.14657,-2.9004 c -3.60828,-3.326 -6.84968,-4.43123 -13.01246,-4.43688 -6.113,-0.006 -10.48267,1.68739 -14.51216,5.62267 -6.05704,5.91541 -8.70291,13.78124 -8.70291,25.87261 0,14.69204 4.65477,24.64943 13.79995,29.52058 2.48789,1.32518 4.16495,1.61139 9.46656,1.61562 5.73806,0.004 6.8079,-0.20936 9.77769,-1.95517 1.83407,-1.07817 3.99838,-2.85001 4.8096,-3.93741 l 1.47494,-1.97711 0.0227,5.06029 c 0.0471,10.51201 -3.3322,15.88321 -10.9937,17.47373 -4.67247,0.97 -9.20493,0.29988 -16.47171,-2.43533 -2.69367,-1.01388 -5.02028,-1.84343 -5.17027,-1.84343 -0.15,0 -0.27272,2.39417 -0.27272,5.32037 v 5.32036 l 5.19023,1.10124 c 2.85462,0.60569 5.9956,1.24875 6.97995,1.42902 3.24662,0.5946 13.24436,-0.24998 16.63492,-1.40526 z M 372.26418,325.73116 v -4.6533 h -19.68705 -19.68704 v -35.79464 -35.79463 h -5.72715 -5.72714 v 40.44794 40.44793 h 25.41419 25.41419 z m 67.29391,0.71589 v -3.93741 H 429.5356 419.5131 v -26.48803 -26.48802 h -12.88607 -12.88607 v 4.29535 4.29536 h 7.51688 7.51687 v 22.19267 22.19267 h -9.66455 -9.66455 v 3.93741 3.93741 h 25.05624 25.05624 z m 25.06024,-15.92861 c 0.004,-20.56684 0.31838,-23.39371 3.04604,-27.40128 2.67878,-3.93578 5.07045,-5.25661 10.02272,-5.53521 5.71611,-0.32157 8.56887,1.29946 10.75198,6.10961 1.43683,3.16584 1.5527,4.76187 1.81761,25.03715 l 0.28294,21.65575 h 4.93468 4.93467 v -22.68263 c 0,-26.14054 -0.4021,-28.82466 -5.12135,-34.18601 -3.8208,-4.34065 -7.60053,-5.69259 -14.73267,-5.26963 -6.25734,0.37109 -9.2323,1.59397 -13.25602,5.44897 l -2.68459,2.57204 v -3.36681 -3.3668 h -5.3692 -5.36919 v 30.42543 30.42544 h 5.36919 5.3692 l 0.004,-19.86602 z M 419.5131,252.71011 v -6.80098 h -5.3692 -5.36919 v 6.80098 6.80098 h 5.36919 5.3692 z M 64.024682,148.5035 c 6.554885,-1.14148 11.049263,-3.87407 13.717538,-8.34027 3.603202,-6.0311 3.869543,-8.98537 3.869543,-42.921225 V 66.220071 H 65.504178 49.396593 v 5.011249 5.011248 h 10.380444 10.380444 v 25.021002 c 0,15.12968 -0.303996,26.43849 -0.768985,28.60666 -1.435893,6.69534 -5.103026,9.46038 -12.546832,9.46038 -6.121266,0 -11.285309,-1.58374 -16.06068,-4.92559 -2.151882,-1.50591 -4.315202,-2.98576 -4.807378,-3.28856 -0.691566,-0.42547 -0.894866,0.98411 -0.894866,6.20452 v 6.75507 l 3.40049,1.46234 c 7.553939,3.24846 17.373352,4.38822 25.545452,2.96511 z m 76.563918,-1.14554 c 10.25318,-3.8601 15.44872,-14.171 15.45299,-30.66746 0.004,-15.24358 -4.58748,-24.79859 -14.17991,-29.50925 -3.68555,-1.809898 -4.76512,-1.990024 -11.92716,-1.990024 -7.16204,0 -8.24162,0.180126 -11.92716,1.990024 -9.67372,4.750571 -14.18176,14.24465 -14.18176,29.8672 0,17.68369 5.77811,27.71127 17.9344,31.12411 4.9211,1.38158 14.04342,0.98691 18.8286,-0.8146 z m 43.57951,-20.10804 c 0.20271,-13.97193 0.5925,-21.50081 1.21371,-23.44312 0.5033,-1.57367 2.25461,-4.200717 3.89179,-5.837899 2.33409,-2.334089 3.70616,-3.086077 6.35584,-3.483419 7.10396,-1.065306 11.77121,1.67075 13.31615,7.806248 0.51307,2.03759 0.81095,10.99296 0.81095,24.38034 v 21.15976 h 5.42 5.42 l -0.26222,-24.16137 C 220.05,97.472687 219.8641,96.128455 215.78612,90.781947 c -3.94521,-5.172439 -12.69283,-7.23494 -20.75048,-4.892511 -3.22363,0.937133 -5.05197,2.046659 -7.64414,4.638827 l -3.40709,3.407084 V 78.287974 62.640608 h -5.36919 -5.3692 v 42.595612 42.59561 h 5.31174 5.31174 z m 67.11421,0.35795 c 0.002,-11.33891 0.32004,-21.36178 0.72337,-22.81381 3.043,-10.954994 17.34461,-14.539432 22.51479,-5.642927 1.35859,2.337767 1.48012,4.040307 1.81409,25.414187 l 0.35794,22.90857 5.22532,0.21104 5.22531,0.21105 -0.21406,-24.5514 c -0.20844,-23.905966 -0.25767,-24.647716 -1.87241,-28.215518 -3.08952,-6.826323 -8.54826,-10.295782 -16.19905,-10.295782 -5.85518,0 -10.74297,1.794922 -14.38151,5.281262 l -3.19779,3.06402 V 89.72181 86.265065 h -5.36919 -5.3692 v 30.783385 30.78338 h 5.3692 5.36919 z"
       id="path49907"
       transform="matrix(0.26458333,0,0,0.26458333,-3.0306122,-1.8941327)" />
    <path
       style="fill:none;stroke-width:0.790075"
       d="M 173.96192,105.23622 V 63.3565 h 4.6533 4.6533 v 16.107585 c 0,8.859172 0.24161,16.100707 0.53692,16.0923 0.29531,-0.0084 1.3967,-1.231591 2.44755,-2.718186 5.50082,-7.781827 19.80643,-9.688186 26.77665,-3.568247 5.95802,5.231214 6.74941,9.499711 6.74941,36.404448 v 21.44154 h -4.6161 -4.6161 l -0.21618,-22.72959 c -0.20185,-21.22335 -0.31106,-22.89068 -1.64796,-25.160385 -2.08819,-3.545199 -4.76382,-5.238087 -8.90825,-5.636315 -4.20846,-0.404379 -9.00966,1.126558 -11.35186,3.619712 -0.82757,0.880913 -2.2402,3.208408 -3.13917,5.172208 -1.55861,3.40478 -1.64635,4.52606 -1.88994,24.15246 l -0.25545,20.58191 h -4.58806 -4.58806 z"
       id="path49909"
       transform="matrix(0.26458333,0,0,0.26458333,-3.0306122,-1.8941327)" />
    <path
       style="fill:none;stroke-width:0.790075"
       d="M 0.71589266,194.36486 V -1.073839 H 295.30572 589.89555 V 194.36486 389.80355 H 295.30572 0.71589266 Z M 307.11795,205.39531 C 377.40071,112.68152 434.9979,36.555272 435.1117,36.225874 c 0.26236,-0.759349 -8.64481,-3.041123 -9.23167,-2.364901 -0.23955,0.276031 -57.70511,76.046447 -127.70126,168.378707 -69.99615,92.33225 -127.57143,168.2624 -127.94507,168.73367 -0.49241,0.62106 0.27181,1.14908 2.77725,1.91884 1.90112,0.5841 4.10089,1.06462 4.88838,1.06783 1.06854,0.004 33.85071,-42.75973 129.21862,-168.56471 z m 245.00468,147.49327 c 4.29255,-1.46262 9.46994,-6.04038 11.58768,-10.24564 3.0218,-6.00047 3.27668,-9.26771 3.27668,-42.00326 v -31.10609 h -5.3692 -5.36919 v 2.95474 2.95475 l -3.14657,-2.9004 c -3.60828,-3.326 -6.84968,-4.43123 -13.01246,-4.43688 -6.113,-0.006 -10.48267,1.68739 -14.51216,5.62267 -6.05704,5.91541 -8.70291,13.78124 -8.70291,25.87261 0,14.69204 4.65477,24.64943 13.79995,29.52058 2.48789,1.32518 4.16495,1.61139 9.46656,1.61562 5.73806,0.004 6.8079,-0.20936 9.77769,-1.95517 1.83407,-1.07817 3.99838,-2.85001 4.8096,-3.93741 l 1.47494,-1.97711 0.0227,5.06029 c 0.0471,10.51201 -3.3322,15.88321 -10.9937,17.47373 -4.67247,0.97 -9.20493,0.29988 -16.47171,-2.43533 -2.69367,-1.01388 -5.02028,-1.84343 -5.17027,-1.84343 -0.15,0 -0.27272,2.39417 -0.27272,5.32037 v 5.32036 l 5.19023,1.10124 c 2.85462,0.60569 5.9956,1.24875 6.97995,1.42902 3.24662,0.5946 13.24436,-0.24998 16.63492,-1.40526 z M 372.26418,325.73116 v -4.6533 h -19.68705 -19.68704 v -35.79464 -35.79463 h -5.72715 -5.72714 v 40.44794 40.44793 h 25.41419 25.41419 z m 67.29391,0.71589 v -3.93741 H 429.5356 419.5131 v -26.48803 -26.48802 h -12.88607 -12.88607 v 4.29535 4.29536 h 7.51688 7.51687 v 22.19267 22.19267 h -9.66455 -9.66455 v 3.93741 3.93741 h 25.05624 25.05624 z m 25.06024,-15.92861 c 0.004,-20.56684 0.31838,-23.39371 3.04604,-27.40128 2.67878,-3.93578 5.07045,-5.25661 10.02272,-5.53521 5.71611,-0.32157 8.56887,1.29946 10.75198,6.10961 1.43683,3.16584 1.5527,4.76187 1.81761,25.03715 l 0.28294,21.65575 h 4.93468 4.93467 v -22.68263 c 0,-26.14054 -0.4021,-28.82466 -5.12135,-34.18601 -3.8208,-4.34065 -7.60053,-5.69259 -14.73267,-5.26963 -6.25734,0.37109 -9.2323,1.59397 -13.25602,5.44897 l -2.68459,2.57204 v -3.36681 -3.3668 h -5.3692 -5.36919 v 30.42543 30.42544 h 5.36919 5.3692 l 0.004,-19.86602 z M 419.5131,252.71011 v -6.80098 h -5.3692 -5.36919 v 6.80098 6.80098 h 5.36919 5.3692 z M 64.024682,148.5035 c 6.554885,-1.14148 11.049263,-3.87407 13.717538,-8.34027 3.603202,-6.0311 3.869543,-8.98537 3.869543,-42.921225 V 66.220071 H 65.504178 49.396593 v 5.011249 5.011248 h 10.380444 10.380444 v 25.021002 c 0,15.12968 -0.303996,26.43849 -0.768985,28.60666 -1.435893,6.69534 -5.103026,9.46038 -12.546832,9.46038 -6.121266,0 -11.285309,-1.58374 -16.06068,-4.92559 -2.151882,-1.50591 -4.315202,-2.98576 -4.807378,-3.28856 -0.691566,-0.42547 -0.894866,0.98411 -0.894866,6.20452 v 6.75507 l 3.40049,1.46234 c 7.553939,3.24846 17.373352,4.38822 25.545452,2.96511 z m 76.563918,-1.14554 c 10.25318,-3.8601 15.44872,-14.171 15.45299,-30.66746 0.004,-15.24358 -4.58748,-24.79859 -14.17991,-29.50925 -3.68555,-1.809898 -4.76512,-1.990024 -11.92716,-1.990024 -7.16204,0 -8.24162,0.180126 -11.92716,1.990024 -9.67372,4.750571 -14.18176,14.24465 -14.18176,29.8672 0,17.68369 5.77811,27.71127 17.9344,31.12411 4.9211,1.38158 14.04342,0.98691 18.8286,-0.8146 z m 43.57951,-20.10804 c 0.20271,-13.97193 0.5925,-21.50081 1.21371,-23.44312 0.5033,-1.57367 2.25461,-4.200717 3.89179,-5.837899 2.33409,-2.334089 3.70616,-3.086077 6.35584,-3.483419 7.10396,-1.065306 11.77121,1.67075 13.31615,7.806248 0.51307,2.03759 0.81095,10.99296 0.81095,24.38034 v 21.15976 h 5.42 5.42 l -0.26222,-24.16137 C 220.05,97.472687 219.8641,96.128455 215.78612,90.781947 c -3.94521,-5.172439 -12.69283,-7.23494 -20.75048,-4.892511 -3.22363,0.937133 -5.05197,2.046659 -7.64414,4.638827 l -3.40709,3.407084 V 78.287974 62.640608 h -5.36919 -5.3692 v 42.595612 42.59561 h 5.31174 5.31174 z m 67.11421,0.35795 c 0.002,-11.33891 0.32004,-21.36178 0.72337,-22.81381 3.043,-10.954994 17.34461,-14.539432 22.51479,-5.642927 1.35859,2.337767 1.48012,4.040307 1.81409,25.414187 l 0.35794,22.90857 5.22532,0.21104 5.22531,0.21105 -0.21406,-24.5514 c -0.20844,-23.905966 -0.25767,-24.647716 -1.87241,-28.215518 -3.08952,-6.826323 -8.54826,-10.295782 -16.19905,-10.295782 -5.85518,0 -10.74297,1.794922 -14.38151,5.281262 l -3.19779,3.06402 V 89.72181 86.265065 h -5.36919 -5.3692 v 30.783385 30.78338 h 5.3692 5.36919 z"
       id="path49911"
       transform="matrix(0.26458333,0,0,0.26458333,-3.0306122,-1.8941327)" />
  </g>
</svg>
